<mxfile host="app.diagrams.net" modified="2023-06-05T02:31:30.490Z" agent="Mozilla/5.0 (Macintosh; Intel Mac OS X 10_15_7) AppleWebKit/605.1.15 (KHTML, like Gecko) Version/16.4 Safari/605.1.15" etag="M-0kxqdqcauhPsu0e6lV" version="21.3.7" type="github">
  <diagram name="Página-1" id="vT6C2PI068epoJccIRs5">
    <mxGraphModel dx="1877" dy="432" grid="1" gridSize="10" guides="1" tooltips="1" connect="1" arrows="1" fold="1" page="1" pageScale="1" pageWidth="1169" pageHeight="827" math="0" shadow="0">
      <root>
        <mxCell id="0" />
        <mxCell id="1" parent="0" />
        <mxCell id="R1lPGfA7pthubSJhBOLm-3" value="Candidato" style="whiteSpace=wrap;html=1;align=center;" parent="1" vertex="1">
          <mxGeometry x="-980" y="485" width="100" height="40" as="geometry" />
        </mxCell>
        <mxCell id="R1lPGfA7pthubSJhBOLm-4" value="Empleo" style="whiteSpace=wrap;html=1;align=center;" parent="1" vertex="1">
          <mxGeometry x="-480" y="460" width="100" height="40" as="geometry" />
        </mxCell>
        <mxCell id="R1lPGfA7pthubSJhBOLm-6" value="Empleador" style="whiteSpace=wrap;html=1;align=center;" parent="1" vertex="1">
          <mxGeometry x="-490" y="620" width="100" height="40" as="geometry" />
        </mxCell>
        <mxCell id="R1lPGfA7pthubSJhBOLm-10" value="RFC" style="ellipse;whiteSpace=wrap;html=1;align=center;" parent="1" vertex="1">
          <mxGeometry x="-350" y="660" width="100" height="40" as="geometry" />
        </mxCell>
        <mxCell id="R1lPGfA7pthubSJhBOLm-11" value="Nombre" style="ellipse;whiteSpace=wrap;html=1;align=center;" parent="1" vertex="1">
          <mxGeometry x="-350" y="600" width="100" height="40" as="geometry" />
        </mxCell>
        <mxCell id="h0BoNwNPt8mU9W3nCbxn-2" value="ID_candidato" style="ellipse;whiteSpace=wrap;html=1;align=center;fontStyle=4;" parent="1" vertex="1">
          <mxGeometry x="-1060" y="390" width="100" height="40" as="geometry" />
        </mxCell>
        <mxCell id="h0BoNwNPt8mU9W3nCbxn-3" value="ID_empleador" style="ellipse;whiteSpace=wrap;html=1;align=center;fontStyle=4;" parent="1" vertex="1">
          <mxGeometry x="-390" y="560" width="100" height="40" as="geometry" />
        </mxCell>
        <mxCell id="h0BoNwNPt8mU9W3nCbxn-4" value="ID_empleo" style="ellipse;whiteSpace=wrap;html=1;align=center;fontStyle=4;" parent="1" vertex="1">
          <mxGeometry x="-360" y="490" width="100" height="40" as="geometry" />
        </mxCell>
        <mxCell id="h0BoNwNPt8mU9W3nCbxn-5" value="caracteristicas" style="ellipse;whiteSpace=wrap;html=1;align=center;" parent="1" vertex="1">
          <mxGeometry x="-400" y="400" width="100" height="40" as="geometry" />
        </mxCell>
        <mxCell id="h0BoNwNPt8mU9W3nCbxn-7" value="cantidad" style="ellipse;whiteSpace=wrap;html=1;align=center;" parent="1" vertex="1">
          <mxGeometry x="-584" y="348" width="60" height="24" as="geometry" />
        </mxCell>
        <mxCell id="h0BoNwNPt8mU9W3nCbxn-8" value="numero_factura" style="ellipse;whiteSpace=wrap;html=1;align=center;fontStyle=4;" parent="1" vertex="1">
          <mxGeometry x="-810" y="354" width="100" height="40" as="geometry" />
        </mxCell>
        <mxCell id="h0BoNwNPt8mU9W3nCbxn-9" value="años de experiencia" style="ellipse;whiteSpace=wrap;html=1;align=center;" parent="1" vertex="1">
          <mxGeometry x="-1100" y="485" width="100" height="40" as="geometry" />
        </mxCell>
        <mxCell id="h0BoNwNPt8mU9W3nCbxn-10" value="numero de telefono" style="ellipse;whiteSpace=wrap;html=1;align=center;" parent="1" vertex="1">
          <mxGeometry x="-1090" y="535" width="100" height="40" as="geometry" />
        </mxCell>
        <mxCell id="h0BoNwNPt8mU9W3nCbxn-11" value="correo" style="ellipse;whiteSpace=wrap;html=1;align=center;" parent="1" vertex="1">
          <mxGeometry x="-1010" y="570" width="100" height="40" as="geometry" />
        </mxCell>
        <mxCell id="h0BoNwNPt8mU9W3nCbxn-12" value="foto de perfil" style="ellipse;whiteSpace=wrap;html=1;align=center;" parent="1" vertex="1">
          <mxGeometry x="-1070" y="445" width="100" height="40" as="geometry" />
        </mxCell>
        <mxCell id="h0BoNwNPt8mU9W3nCbxn-13" value="comprobante" style="ellipse;whiteSpace=wrap;html=1;align=center;" parent="1" vertex="1">
          <mxGeometry x="-750" y="314" width="80" height="34" as="geometry" />
        </mxCell>
        <mxCell id="h0BoNwNPt8mU9W3nCbxn-14" value="duracion" style="ellipse;whiteSpace=wrap;html=1;align=center;" parent="1" vertex="1">
          <mxGeometry x="-360" y="440" width="100" height="40" as="geometry" />
        </mxCell>
        <mxCell id="h0BoNwNPt8mU9W3nCbxn-15" value="nombre del puesto" style="ellipse;whiteSpace=wrap;html=1;align=center;" parent="1" vertex="1">
          <mxGeometry x="-510" y="400" width="100" height="40" as="geometry" />
        </mxCell>
        <mxCell id="h0BoNwNPt8mU9W3nCbxn-16" value="Accesos" style="whiteSpace=wrap;html=1;align=center;" parent="1" vertex="1">
          <mxGeometry x="-740" y="610" width="100" height="40" as="geometry" />
        </mxCell>
        <mxCell id="h0BoNwNPt8mU9W3nCbxn-17" value="Contraseña" style="ellipse;whiteSpace=wrap;html=1;align=center;" parent="1" vertex="1">
          <mxGeometry x="-800" y="660" width="100" height="40" as="geometry" />
        </mxCell>
        <mxCell id="h0BoNwNPt8mU9W3nCbxn-19" value="usuario" style="ellipse;whiteSpace=wrap;html=1;align=center;fontStyle=4;" parent="1" vertex="1">
          <mxGeometry x="-675" y="660" width="100" height="40" as="geometry" />
        </mxCell>
        <mxCell id="h0BoNwNPt8mU9W3nCbxn-20" value="habilidades" style="whiteSpace=wrap;html=1;align=center;" parent="1" vertex="1">
          <mxGeometry x="-940" y="280" width="100" height="40" as="geometry" />
        </mxCell>
        <mxCell id="h0BoNwNPt8mU9W3nCbxn-21" value="Certificaciones" style="ellipse;shape=doubleEllipse;margin=3;whiteSpace=wrap;html=1;align=center;" parent="1" vertex="1">
          <mxGeometry x="-1040" y="250" width="100" height="40" as="geometry" />
        </mxCell>
        <mxCell id="h0BoNwNPt8mU9W3nCbxn-22" value="Hab tecnicas" style="ellipse;shape=doubleEllipse;margin=3;whiteSpace=wrap;html=1;align=center;" parent="1" vertex="1">
          <mxGeometry x="-950" y="220" width="100" height="40" as="geometry" />
        </mxCell>
        <mxCell id="h0BoNwNPt8mU9W3nCbxn-23" value="Hab blandas" style="ellipse;shape=doubleEllipse;margin=3;whiteSpace=wrap;html=1;align=center;" parent="1" vertex="1">
          <mxGeometry x="-850" y="230" width="100" height="40" as="geometry" />
        </mxCell>
        <mxCell id="h0BoNwNPt8mU9W3nCbxn-24" value="tipo de empleador" style="ellipse;whiteSpace=wrap;html=1;align=center;" parent="1" vertex="1">
          <mxGeometry x="-460" y="680" width="100" height="40" as="geometry" />
        </mxCell>
        <mxCell id="h0BoNwNPt8mU9W3nCbxn-25" value="Tiene" style="shape=rhombus;perimeter=rhombusPerimeter;whiteSpace=wrap;html=1;align=center;" parent="1" vertex="1">
          <mxGeometry x="-930" y="364" width="80" height="50" as="geometry" />
        </mxCell>
        <mxCell id="h0BoNwNPt8mU9W3nCbxn-26" value="" style="endArrow=none;html=1;rounded=0;" parent="1" source="bctqPc9YO9gmIVUVWEl7-32" target="R1lPGfA7pthubSJhBOLm-3" edge="1">
          <mxGeometry relative="1" as="geometry">
            <mxPoint x="-900" y="420" as="sourcePoint" />
            <mxPoint x="-740" y="420" as="targetPoint" />
          </mxGeometry>
        </mxCell>
        <mxCell id="h0BoNwNPt8mU9W3nCbxn-27" value="" style="endArrow=none;html=1;rounded=0;" parent="1" source="bctqPc9YO9gmIVUVWEl7-34" target="h0BoNwNPt8mU9W3nCbxn-20" edge="1">
          <mxGeometry relative="1" as="geometry">
            <mxPoint x="-900" y="390" as="sourcePoint" />
            <mxPoint x="-740" y="420" as="targetPoint" />
          </mxGeometry>
        </mxCell>
        <mxCell id="h0BoNwNPt8mU9W3nCbxn-28" value="" style="endArrow=none;html=1;rounded=0;" parent="1" source="h0BoNwNPt8mU9W3nCbxn-2" target="R1lPGfA7pthubSJhBOLm-3" edge="1">
          <mxGeometry relative="1" as="geometry">
            <mxPoint x="-900" y="420" as="sourcePoint" />
            <mxPoint x="-740" y="420" as="targetPoint" />
          </mxGeometry>
        </mxCell>
        <mxCell id="h0BoNwNPt8mU9W3nCbxn-29" value="" style="endArrow=none;html=1;rounded=0;" parent="1" source="h0BoNwNPt8mU9W3nCbxn-12" target="R1lPGfA7pthubSJhBOLm-3" edge="1">
          <mxGeometry relative="1" as="geometry">
            <mxPoint x="-900" y="420" as="sourcePoint" />
            <mxPoint x="-740" y="420" as="targetPoint" />
          </mxGeometry>
        </mxCell>
        <mxCell id="h0BoNwNPt8mU9W3nCbxn-30" value="" style="endArrow=none;html=1;rounded=0;" parent="1" source="h0BoNwNPt8mU9W3nCbxn-9" target="R1lPGfA7pthubSJhBOLm-3" edge="1">
          <mxGeometry relative="1" as="geometry">
            <mxPoint x="-900" y="420" as="sourcePoint" />
            <mxPoint x="-740" y="420" as="targetPoint" />
          </mxGeometry>
        </mxCell>
        <mxCell id="h0BoNwNPt8mU9W3nCbxn-31" value="" style="endArrow=none;html=1;rounded=0;" parent="1" source="h0BoNwNPt8mU9W3nCbxn-10" target="R1lPGfA7pthubSJhBOLm-3" edge="1">
          <mxGeometry relative="1" as="geometry">
            <mxPoint x="-900" y="510" as="sourcePoint" />
            <mxPoint x="-740" y="510" as="targetPoint" />
          </mxGeometry>
        </mxCell>
        <mxCell id="h0BoNwNPt8mU9W3nCbxn-32" value="" style="endArrow=none;html=1;rounded=0;" parent="1" source="h0BoNwNPt8mU9W3nCbxn-11" target="R1lPGfA7pthubSJhBOLm-3" edge="1">
          <mxGeometry relative="1" as="geometry">
            <mxPoint x="-900" y="420" as="sourcePoint" />
            <mxPoint x="-740" y="420" as="targetPoint" />
          </mxGeometry>
        </mxCell>
        <mxCell id="h0BoNwNPt8mU9W3nCbxn-33" value="" style="endArrow=none;html=1;rounded=0;" parent="1" source="h0BoNwNPt8mU9W3nCbxn-16" target="h0BoNwNPt8mU9W3nCbxn-17" edge="1">
          <mxGeometry relative="1" as="geometry">
            <mxPoint x="-860" y="420" as="sourcePoint" />
            <mxPoint x="-700" y="420" as="targetPoint" />
          </mxGeometry>
        </mxCell>
        <mxCell id="h0BoNwNPt8mU9W3nCbxn-34" value="" style="endArrow=none;html=1;rounded=0;" parent="1" source="h0BoNwNPt8mU9W3nCbxn-16" target="h0BoNwNPt8mU9W3nCbxn-19" edge="1">
          <mxGeometry relative="1" as="geometry">
            <mxPoint x="-680" y="610" as="sourcePoint" />
            <mxPoint x="-700" y="420" as="targetPoint" />
          </mxGeometry>
        </mxCell>
        <mxCell id="h0BoNwNPt8mU9W3nCbxn-35" value="" style="endArrow=none;html=1;rounded=0;" parent="1" source="bctqPc9YO9gmIVUVWEl7-5" target="h0BoNwNPt8mU9W3nCbxn-36" edge="1">
          <mxGeometry relative="1" as="geometry">
            <mxPoint x="-845" y="510" as="sourcePoint" />
            <mxPoint x="-685" y="510" as="targetPoint" />
          </mxGeometry>
        </mxCell>
        <mxCell id="h0BoNwNPt8mU9W3nCbxn-36" value="Tiene" style="shape=rhombus;perimeter=rhombusPerimeter;whiteSpace=wrap;html=1;align=center;" parent="1" vertex="1">
          <mxGeometry x="-849" y="545" width="80" height="50" as="geometry" />
        </mxCell>
        <mxCell id="h0BoNwNPt8mU9W3nCbxn-37" value="" style="endArrow=none;html=1;rounded=0;" parent="1" source="bctqPc9YO9gmIVUVWEl7-9" target="h0BoNwNPt8mU9W3nCbxn-16" edge="1">
          <mxGeometry relative="1" as="geometry">
            <mxPoint x="-770" y="430" as="sourcePoint" />
            <mxPoint x="-610" y="430" as="targetPoint" />
          </mxGeometry>
        </mxCell>
        <mxCell id="h0BoNwNPt8mU9W3nCbxn-38" value="" style="endArrow=none;html=1;rounded=0;" parent="1" source="h0BoNwNPt8mU9W3nCbxn-21" target="h0BoNwNPt8mU9W3nCbxn-20" edge="1">
          <mxGeometry relative="1" as="geometry">
            <mxPoint x="-770" y="430" as="sourcePoint" />
            <mxPoint x="-610" y="430" as="targetPoint" />
          </mxGeometry>
        </mxCell>
        <mxCell id="h0BoNwNPt8mU9W3nCbxn-39" value="" style="endArrow=none;html=1;rounded=0;" parent="1" source="h0BoNwNPt8mU9W3nCbxn-22" target="h0BoNwNPt8mU9W3nCbxn-20" edge="1">
          <mxGeometry relative="1" as="geometry">
            <mxPoint x="-990" y="340" as="sourcePoint" />
            <mxPoint x="-830" y="340" as="targetPoint" />
          </mxGeometry>
        </mxCell>
        <mxCell id="h0BoNwNPt8mU9W3nCbxn-40" value="" style="endArrow=none;html=1;rounded=0;" parent="1" source="h0BoNwNPt8mU9W3nCbxn-20" target="h0BoNwNPt8mU9W3nCbxn-23" edge="1">
          <mxGeometry relative="1" as="geometry">
            <mxPoint x="-990" y="340" as="sourcePoint" />
            <mxPoint x="-830" y="340" as="targetPoint" />
          </mxGeometry>
        </mxCell>
        <mxCell id="h0BoNwNPt8mU9W3nCbxn-41" value="" style="endArrow=none;html=1;rounded=0;exitX=1;exitY=0.5;exitDx=0;exitDy=0;" parent="1" source="bctqPc9YO9gmIVUVWEl7-15" target="R1lPGfA7pthubSJhBOLm-6" edge="1">
          <mxGeometry relative="1" as="geometry">
            <mxPoint x="-590" y="520" as="sourcePoint" />
            <mxPoint x="-430" y="520" as="targetPoint" />
          </mxGeometry>
        </mxCell>
        <mxCell id="h0BoNwNPt8mU9W3nCbxn-42" value="" style="endArrow=none;html=1;rounded=0;" parent="1" source="R1lPGfA7pthubSJhBOLm-6" target="h0BoNwNPt8mU9W3nCbxn-3" edge="1">
          <mxGeometry relative="1" as="geometry">
            <mxPoint x="-550" y="660" as="sourcePoint" />
            <mxPoint x="-390" y="660" as="targetPoint" />
          </mxGeometry>
        </mxCell>
        <mxCell id="h0BoNwNPt8mU9W3nCbxn-43" value="" style="endArrow=none;html=1;rounded=0;" parent="1" source="R1lPGfA7pthubSJhBOLm-6" target="R1lPGfA7pthubSJhBOLm-11" edge="1">
          <mxGeometry relative="1" as="geometry">
            <mxPoint x="-550" y="660" as="sourcePoint" />
            <mxPoint x="-390" y="660" as="targetPoint" />
          </mxGeometry>
        </mxCell>
        <mxCell id="h0BoNwNPt8mU9W3nCbxn-44" value="" style="endArrow=none;html=1;rounded=0;" parent="1" source="R1lPGfA7pthubSJhBOLm-6" target="R1lPGfA7pthubSJhBOLm-10" edge="1">
          <mxGeometry relative="1" as="geometry">
            <mxPoint x="-550" y="660" as="sourcePoint" />
            <mxPoint x="-390" y="660" as="targetPoint" />
          </mxGeometry>
        </mxCell>
        <mxCell id="h0BoNwNPt8mU9W3nCbxn-45" value="" style="endArrow=none;html=1;rounded=0;" parent="1" source="R1lPGfA7pthubSJhBOLm-6" target="h0BoNwNPt8mU9W3nCbxn-24" edge="1">
          <mxGeometry relative="1" as="geometry">
            <mxPoint x="-550" y="660" as="sourcePoint" />
            <mxPoint x="-390" y="660" as="targetPoint" />
          </mxGeometry>
        </mxCell>
        <mxCell id="h0BoNwNPt8mU9W3nCbxn-48" value="Ofrece" style="shape=rhombus;perimeter=rhombusPerimeter;whiteSpace=wrap;html=1;align=center;" parent="1" vertex="1">
          <mxGeometry x="-485" y="535" width="90" height="50" as="geometry" />
        </mxCell>
        <mxCell id="h0BoNwNPt8mU9W3nCbxn-49" value="trabaja" style="shape=rhombus;perimeter=rhombusPerimeter;whiteSpace=wrap;html=1;align=center;" parent="1" vertex="1">
          <mxGeometry x="-710" y="448" width="80" height="34" as="geometry" />
        </mxCell>
        <mxCell id="h0BoNwNPt8mU9W3nCbxn-50" value="aplica" style="shape=rhombus;perimeter=rhombusPerimeter;whiteSpace=wrap;html=1;align=center;" parent="1" vertex="1">
          <mxGeometry x="-710" y="520" width="90" height="35" as="geometry" />
        </mxCell>
        <mxCell id="h0BoNwNPt8mU9W3nCbxn-51" value="" style="endArrow=none;html=1;rounded=0;entryX=0;entryY=0.5;entryDx=0;entryDy=0;" parent="1" source="bctqPc9YO9gmIVUVWEl7-22" target="h0BoNwNPt8mU9W3nCbxn-50" edge="1">
          <mxGeometry relative="1" as="geometry">
            <mxPoint x="-770" y="460" as="sourcePoint" />
            <mxPoint x="-610" y="460" as="targetPoint" />
          </mxGeometry>
        </mxCell>
        <mxCell id="h0BoNwNPt8mU9W3nCbxn-52" value="" style="endArrow=none;html=1;rounded=0;entryX=0;entryY=1;entryDx=0;entryDy=0;" parent="1" source="bctqPc9YO9gmIVUVWEl7-24" target="R1lPGfA7pthubSJhBOLm-4" edge="1">
          <mxGeometry relative="1" as="geometry">
            <mxPoint x="-710" y="540" as="sourcePoint" />
            <mxPoint x="-550" y="540" as="targetPoint" />
          </mxGeometry>
        </mxCell>
        <mxCell id="h0BoNwNPt8mU9W3nCbxn-54" value="calificación empleo" style="ellipse;whiteSpace=wrap;html=1;align=center;" parent="1" vertex="1">
          <mxGeometry x="-844" y="390" width="70" height="30" as="geometry" />
        </mxCell>
        <mxCell id="h0BoNwNPt8mU9W3nCbxn-55" value="calificación empleado" style="ellipse;whiteSpace=wrap;html=1;align=center;" parent="1" vertex="1">
          <mxGeometry x="-597.5" y="395" width="84" height="40" as="geometry" />
        </mxCell>
        <mxCell id="h0BoNwNPt8mU9W3nCbxn-56" value="" style="endArrow=none;html=1;rounded=0;" parent="1" source="h0BoNwNPt8mU9W3nCbxn-15" target="R1lPGfA7pthubSJhBOLm-4" edge="1">
          <mxGeometry relative="1" as="geometry">
            <mxPoint x="-620" y="500" as="sourcePoint" />
            <mxPoint x="-460" y="500" as="targetPoint" />
          </mxGeometry>
        </mxCell>
        <mxCell id="h0BoNwNPt8mU9W3nCbxn-57" value="" style="endArrow=none;html=1;rounded=0;" parent="1" source="R1lPGfA7pthubSJhBOLm-4" target="h0BoNwNPt8mU9W3nCbxn-5" edge="1">
          <mxGeometry relative="1" as="geometry">
            <mxPoint x="-570" y="500" as="sourcePoint" />
            <mxPoint x="-410" y="500" as="targetPoint" />
          </mxGeometry>
        </mxCell>
        <mxCell id="h0BoNwNPt8mU9W3nCbxn-58" value="" style="endArrow=none;html=1;rounded=0;" parent="1" source="R1lPGfA7pthubSJhBOLm-4" target="h0BoNwNPt8mU9W3nCbxn-14" edge="1">
          <mxGeometry relative="1" as="geometry">
            <mxPoint x="-570" y="500" as="sourcePoint" />
            <mxPoint x="-410" y="500" as="targetPoint" />
          </mxGeometry>
        </mxCell>
        <mxCell id="h0BoNwNPt8mU9W3nCbxn-59" value="" style="endArrow=none;html=1;rounded=0;" parent="1" source="R1lPGfA7pthubSJhBOLm-4" target="h0BoNwNPt8mU9W3nCbxn-4" edge="1">
          <mxGeometry relative="1" as="geometry">
            <mxPoint x="-570" y="500" as="sourcePoint" />
            <mxPoint x="-410" y="500" as="targetPoint" />
          </mxGeometry>
        </mxCell>
        <mxCell id="h0BoNwNPt8mU9W3nCbxn-60" value="" style="endArrow=none;html=1;rounded=0;entryX=0.5;entryY=0;entryDx=0;entryDy=0;" parent="1" source="bctqPc9YO9gmIVUVWEl7-17" target="h0BoNwNPt8mU9W3nCbxn-48" edge="1">
          <mxGeometry relative="1" as="geometry">
            <mxPoint x="-540" y="500" as="sourcePoint" />
            <mxPoint x="-380" y="500" as="targetPoint" />
          </mxGeometry>
        </mxCell>
        <mxCell id="h0BoNwNPt8mU9W3nCbxn-61" value="" style="endArrow=none;html=1;rounded=0;" parent="1" source="bctqPc9YO9gmIVUVWEl7-20" target="R1lPGfA7pthubSJhBOLm-6" edge="1">
          <mxGeometry relative="1" as="geometry">
            <mxPoint x="-540" y="500" as="sourcePoint" />
            <mxPoint x="-380" y="500" as="targetPoint" />
          </mxGeometry>
        </mxCell>
        <mxCell id="h0BoNwNPt8mU9W3nCbxn-62" value="" style="endArrow=none;html=1;rounded=0;" parent="1" source="h0BoNwNPt8mU9W3nCbxn-54" target="h0BoNwNPt8mU9W3nCbxn-49" edge="1">
          <mxGeometry relative="1" as="geometry">
            <mxPoint x="-860" y="470" as="sourcePoint" />
            <mxPoint x="-700" y="470" as="targetPoint" />
          </mxGeometry>
        </mxCell>
        <mxCell id="h0BoNwNPt8mU9W3nCbxn-63" value="" style="endArrow=none;html=1;rounded=0;" parent="1" source="h0BoNwNPt8mU9W3nCbxn-8" target="h0BoNwNPt8mU9W3nCbxn-49" edge="1">
          <mxGeometry relative="1" as="geometry">
            <mxPoint x="-860" y="470" as="sourcePoint" />
            <mxPoint x="-700" y="470" as="targetPoint" />
          </mxGeometry>
        </mxCell>
        <mxCell id="h0BoNwNPt8mU9W3nCbxn-64" value="" style="endArrow=none;html=1;rounded=0;" parent="1" source="h0BoNwNPt8mU9W3nCbxn-13" target="h0BoNwNPt8mU9W3nCbxn-49" edge="1">
          <mxGeometry relative="1" as="geometry">
            <mxPoint x="-860" y="470" as="sourcePoint" />
            <mxPoint x="-700" y="470" as="targetPoint" />
          </mxGeometry>
        </mxCell>
        <mxCell id="h0BoNwNPt8mU9W3nCbxn-65" value="" style="endArrow=none;html=1;rounded=0;" parent="1" source="h0BoNwNPt8mU9W3nCbxn-7" target="h0BoNwNPt8mU9W3nCbxn-49" edge="1">
          <mxGeometry relative="1" as="geometry">
            <mxPoint x="-860" y="470" as="sourcePoint" />
            <mxPoint x="-700" y="470" as="targetPoint" />
          </mxGeometry>
        </mxCell>
        <mxCell id="h0BoNwNPt8mU9W3nCbxn-66" value="" style="endArrow=none;html=1;rounded=0;" parent="1" source="h0BoNwNPt8mU9W3nCbxn-49" target="h0BoNwNPt8mU9W3nCbxn-55" edge="1">
          <mxGeometry relative="1" as="geometry">
            <mxPoint x="-860" y="470" as="sourcePoint" />
            <mxPoint x="-700" y="470" as="targetPoint" />
          </mxGeometry>
        </mxCell>
        <mxCell id="h0BoNwNPt8mU9W3nCbxn-67" value="" style="endArrow=none;html=1;rounded=0;entryX=0;entryY=0.5;entryDx=0;entryDy=0;exitX=1;exitY=0.5;exitDx=0;exitDy=0;" parent="1" source="bctqPc9YO9gmIVUVWEl7-27" target="h0BoNwNPt8mU9W3nCbxn-49" edge="1">
          <mxGeometry relative="1" as="geometry">
            <mxPoint x="-800" y="480" as="sourcePoint" />
            <mxPoint x="-540" y="460" as="targetPoint" />
          </mxGeometry>
        </mxCell>
        <mxCell id="h0BoNwNPt8mU9W3nCbxn-68" value="" style="endArrow=none;html=1;rounded=0;" parent="1" source="bctqPc9YO9gmIVUVWEl7-29" target="R1lPGfA7pthubSJhBOLm-4" edge="1">
          <mxGeometry relative="1" as="geometry">
            <mxPoint x="-700" y="460" as="sourcePoint" />
            <mxPoint x="-540" y="460" as="targetPoint" />
          </mxGeometry>
        </mxCell>
        <mxCell id="h0BoNwNPt8mU9W3nCbxn-72" value="" style="endArrow=none;html=1;rounded=0;entryX=0;entryY=0.5;entryDx=0;entryDy=0;" parent="1" source="bctqPc9YO9gmIVUVWEl7-11" target="h0BoNwNPt8mU9W3nCbxn-71" edge="1">
          <mxGeometry relative="1" as="geometry">
            <mxPoint x="-630" y="624" as="sourcePoint" />
            <mxPoint x="-490" y="636" as="targetPoint" />
          </mxGeometry>
        </mxCell>
        <mxCell id="h0BoNwNPt8mU9W3nCbxn-71" value="Tiene" style="shape=rhombus;perimeter=rhombusPerimeter;whiteSpace=wrap;html=1;align=center;" parent="1" vertex="1">
          <mxGeometry x="-606" y="609" width="80" height="50" as="geometry" />
        </mxCell>
        <mxCell id="h0BoNwNPt8mU9W3nCbxn-73" value="aceptado" style="ellipse;whiteSpace=wrap;html=1;align=center;" parent="1" vertex="1">
          <mxGeometry x="-627" y="545" width="70" height="30" as="geometry" />
        </mxCell>
        <mxCell id="h0BoNwNPt8mU9W3nCbxn-74" value="" style="endArrow=none;html=1;rounded=0;" parent="1" source="h0BoNwNPt8mU9W3nCbxn-50" target="h0BoNwNPt8mU9W3nCbxn-73" edge="1">
          <mxGeometry relative="1" as="geometry">
            <mxPoint x="-680" y="500" as="sourcePoint" />
            <mxPoint x="-520" y="500" as="targetPoint" />
          </mxGeometry>
        </mxCell>
        <mxCell id="h0BoNwNPt8mU9W3nCbxn-77" value="evidencia de trabajo" style="ellipse;whiteSpace=wrap;html=1;align=center;" parent="1" vertex="1">
          <mxGeometry x="-684" y="340" width="100" height="40" as="geometry" />
        </mxCell>
        <mxCell id="h0BoNwNPt8mU9W3nCbxn-78" value="" style="endArrow=none;html=1;rounded=0;" parent="1" source="h0BoNwNPt8mU9W3nCbxn-49" target="h0BoNwNPt8mU9W3nCbxn-77" edge="1">
          <mxGeometry relative="1" as="geometry">
            <mxPoint x="-820" y="580" as="sourcePoint" />
            <mxPoint x="-660" y="580" as="targetPoint" />
          </mxGeometry>
        </mxCell>
        <mxCell id="bctqPc9YO9gmIVUVWEl7-6" value="" style="endArrow=none;html=1;rounded=0;" parent="1" source="R1lPGfA7pthubSJhBOLm-3" target="bctqPc9YO9gmIVUVWEl7-5" edge="1">
          <mxGeometry relative="1" as="geometry">
            <mxPoint x="-893" y="525" as="sourcePoint" />
            <mxPoint x="-821" y="563" as="targetPoint" />
          </mxGeometry>
        </mxCell>
        <mxCell id="bctqPc9YO9gmIVUVWEl7-5" value="1" style="text;strokeColor=none;fillColor=none;spacingLeft=4;spacingRight=4;overflow=hidden;rotatable=0;points=[[0,0.5],[1,0.5]];portConstraint=eastwest;fontSize=12;whiteSpace=wrap;html=1;" parent="1" vertex="1">
          <mxGeometry x="-869" y="535" width="19" height="20" as="geometry" />
        </mxCell>
        <mxCell id="bctqPc9YO9gmIVUVWEl7-10" value="" style="endArrow=none;html=1;rounded=0;" parent="1" source="h0BoNwNPt8mU9W3nCbxn-36" target="bctqPc9YO9gmIVUVWEl7-9" edge="1">
          <mxGeometry relative="1" as="geometry">
            <mxPoint x="-778" y="586" as="sourcePoint" />
            <mxPoint x="-730" y="610" as="targetPoint" />
          </mxGeometry>
        </mxCell>
        <mxCell id="bctqPc9YO9gmIVUVWEl7-9" value="1" style="text;strokeColor=none;fillColor=none;spacingLeft=4;spacingRight=4;overflow=hidden;rotatable=0;points=[[0,0.5],[1,0.5]];portConstraint=eastwest;fontSize=12;whiteSpace=wrap;html=1;" parent="1" vertex="1">
          <mxGeometry x="-769" y="580" width="19" height="20" as="geometry" />
        </mxCell>
        <mxCell id="bctqPc9YO9gmIVUVWEl7-12" value="" style="endArrow=none;html=1;rounded=0;exitX=1.009;exitY=0.603;exitDx=0;exitDy=0;exitPerimeter=0;" parent="1" source="h0BoNwNPt8mU9W3nCbxn-16" target="bctqPc9YO9gmIVUVWEl7-11" edge="1">
          <mxGeometry relative="1" as="geometry">
            <mxPoint x="-640" y="632" as="sourcePoint" />
            <mxPoint x="-604" y="633" as="targetPoint" />
          </mxGeometry>
        </mxCell>
        <mxCell id="bctqPc9YO9gmIVUVWEl7-11" value="1" style="text;strokeColor=none;fillColor=none;spacingLeft=4;spacingRight=4;overflow=hidden;rotatable=0;points=[[0,0.5],[1,0.5]];portConstraint=eastwest;fontSize=12;whiteSpace=wrap;html=1;" parent="1" vertex="1">
          <mxGeometry x="-634.5" y="624" width="19" height="20" as="geometry" />
        </mxCell>
        <mxCell id="bctqPc9YO9gmIVUVWEl7-16" value="" style="endArrow=none;html=1;rounded=0;exitX=1;exitY=0.5;exitDx=0;exitDy=0;" parent="1" source="h0BoNwNPt8mU9W3nCbxn-71" target="bctqPc9YO9gmIVUVWEl7-15" edge="1">
          <mxGeometry relative="1" as="geometry">
            <mxPoint x="-520" y="635" as="sourcePoint" />
            <mxPoint x="-490" y="637" as="targetPoint" />
          </mxGeometry>
        </mxCell>
        <mxCell id="bctqPc9YO9gmIVUVWEl7-15" value="1" style="text;strokeColor=none;fillColor=none;spacingLeft=4;spacingRight=4;overflow=hidden;rotatable=0;points=[[0,0.5],[1,0.5]];portConstraint=eastwest;fontSize=12;whiteSpace=wrap;html=1;" parent="1" vertex="1">
          <mxGeometry x="-520" y="625" width="19" height="20" as="geometry" />
        </mxCell>
        <mxCell id="bctqPc9YO9gmIVUVWEl7-18" value="" style="endArrow=none;html=1;rounded=0;exitX=0.5;exitY=1;exitDx=0;exitDy=0;" parent="1" source="R1lPGfA7pthubSJhBOLm-4" target="bctqPc9YO9gmIVUVWEl7-17" edge="1">
          <mxGeometry relative="1" as="geometry">
            <mxPoint x="-432" y="500" as="sourcePoint" />
            <mxPoint x="-437" y="537" as="targetPoint" />
          </mxGeometry>
        </mxCell>
        <mxCell id="bctqPc9YO9gmIVUVWEl7-17" value="n" style="text;strokeColor=none;fillColor=none;spacingLeft=4;spacingRight=4;overflow=hidden;rotatable=0;points=[[0,0.5],[1,0.5]];portConstraint=eastwest;fontSize=12;whiteSpace=wrap;html=1;" parent="1" vertex="1">
          <mxGeometry x="-449.5" y="505" width="19" height="20" as="geometry" />
        </mxCell>
        <mxCell id="bctqPc9YO9gmIVUVWEl7-21" value="" style="endArrow=none;html=1;rounded=0;" parent="1" source="h0BoNwNPt8mU9W3nCbxn-48" target="bctqPc9YO9gmIVUVWEl7-20" edge="1">
          <mxGeometry relative="1" as="geometry">
            <mxPoint x="-440" y="585" as="sourcePoint" />
            <mxPoint x="-440" y="620" as="targetPoint" />
          </mxGeometry>
        </mxCell>
        <mxCell id="bctqPc9YO9gmIVUVWEl7-20" value="m" style="text;strokeColor=none;fillColor=none;spacingLeft=4;spacingRight=4;overflow=hidden;rotatable=0;points=[[0,0.5],[1,0.5]];portConstraint=eastwest;fontSize=12;whiteSpace=wrap;html=1;" parent="1" vertex="1">
          <mxGeometry x="-450" y="590" width="18.5" height="20" as="geometry" />
        </mxCell>
        <mxCell id="bctqPc9YO9gmIVUVWEl7-23" value="" style="endArrow=none;html=1;rounded=0;" parent="1" source="R1lPGfA7pthubSJhBOLm-3" target="bctqPc9YO9gmIVUVWEl7-22" edge="1">
          <mxGeometry relative="1" as="geometry">
            <mxPoint x="-880" y="511" as="sourcePoint" />
            <mxPoint x="-699" y="533" as="targetPoint" />
          </mxGeometry>
        </mxCell>
        <mxCell id="bctqPc9YO9gmIVUVWEl7-22" value="1" style="text;strokeColor=none;fillColor=none;spacingLeft=4;spacingRight=4;overflow=hidden;rotatable=0;points=[[0,0.5],[1,0.5]];portConstraint=eastwest;fontSize=12;whiteSpace=wrap;html=1;" parent="1" vertex="1">
          <mxGeometry x="-800" y="515" width="19" height="20" as="geometry" />
        </mxCell>
        <mxCell id="bctqPc9YO9gmIVUVWEl7-25" value="" style="endArrow=none;html=1;rounded=0;exitX=1;exitY=0.5;exitDx=0;exitDy=0;" parent="1" source="h0BoNwNPt8mU9W3nCbxn-50" target="bctqPc9YO9gmIVUVWEl7-24" edge="1">
          <mxGeometry relative="1" as="geometry">
            <mxPoint x="-637" y="531" as="sourcePoint" />
            <mxPoint x="-480" y="492" as="targetPoint" />
          </mxGeometry>
        </mxCell>
        <mxCell id="bctqPc9YO9gmIVUVWEl7-24" value="m" style="text;strokeColor=none;fillColor=none;spacingLeft=4;spacingRight=4;overflow=hidden;rotatable=0;points=[[0,0.5],[1,0.5]];portConstraint=eastwest;fontSize=12;whiteSpace=wrap;html=1;" parent="1" vertex="1">
          <mxGeometry x="-575" y="510" width="18.5" height="20" as="geometry" />
        </mxCell>
        <mxCell id="bctqPc9YO9gmIVUVWEl7-28" value="" style="endArrow=none;html=1;rounded=0;" parent="1" source="R1lPGfA7pthubSJhBOLm-3" target="bctqPc9YO9gmIVUVWEl7-27" edge="1">
          <mxGeometry relative="1" as="geometry">
            <mxPoint x="-880" y="497" as="sourcePoint" />
            <mxPoint x="-699" y="470" as="targetPoint" />
          </mxGeometry>
        </mxCell>
        <mxCell id="bctqPc9YO9gmIVUVWEl7-27" value="1" style="text;strokeColor=none;fillColor=none;spacingLeft=4;spacingRight=4;overflow=hidden;rotatable=0;points=[[0,0.5],[1,0.5]];portConstraint=eastwest;fontSize=12;whiteSpace=wrap;html=1;" parent="1" vertex="1">
          <mxGeometry x="-809.5" y="470" width="19" height="20" as="geometry" />
        </mxCell>
        <mxCell id="bctqPc9YO9gmIVUVWEl7-30" value="" style="endArrow=none;html=1;rounded=0;exitX=1;exitY=0.5;exitDx=0;exitDy=0;entryX=0;entryY=0.5;entryDx=0;entryDy=0;" parent="1" source="h0BoNwNPt8mU9W3nCbxn-49" target="bctqPc9YO9gmIVUVWEl7-29" edge="1">
          <mxGeometry relative="1" as="geometry">
            <mxPoint x="-635" y="467" as="sourcePoint" />
            <mxPoint x="-480" y="477" as="targetPoint" />
          </mxGeometry>
        </mxCell>
        <mxCell id="bctqPc9YO9gmIVUVWEl7-29" value="1" style="text;strokeColor=none;fillColor=none;spacingLeft=4;spacingRight=4;overflow=hidden;rotatable=0;points=[[0,0.5],[1,0.5]];portConstraint=eastwest;fontSize=12;whiteSpace=wrap;html=1;" parent="1" vertex="1">
          <mxGeometry x="-565" y="460" width="19" height="20" as="geometry" />
        </mxCell>
        <mxCell id="bctqPc9YO9gmIVUVWEl7-33" value="" style="endArrow=none;html=1;rounded=0;" parent="1" source="h0BoNwNPt8mU9W3nCbxn-25" target="bctqPc9YO9gmIVUVWEl7-32" edge="1">
          <mxGeometry relative="1" as="geometry">
            <mxPoint x="-897" y="410" as="sourcePoint" />
            <mxPoint x="-923" y="485" as="targetPoint" />
          </mxGeometry>
        </mxCell>
        <mxCell id="bctqPc9YO9gmIVUVWEl7-32" value="1" style="text;strokeColor=none;fillColor=none;spacingLeft=4;spacingRight=4;overflow=hidden;rotatable=0;points=[[0,0.5],[1,0.5]];portConstraint=eastwest;fontSize=12;whiteSpace=wrap;html=1;" parent="1" vertex="1">
          <mxGeometry x="-920" y="434" width="19" height="20" as="geometry" />
        </mxCell>
        <mxCell id="bctqPc9YO9gmIVUVWEl7-35" value="" style="endArrow=none;html=1;rounded=0;" parent="1" source="h0BoNwNPt8mU9W3nCbxn-25" target="bctqPc9YO9gmIVUVWEl7-34" edge="1">
          <mxGeometry relative="1" as="geometry">
            <mxPoint x="-890" y="364" as="sourcePoint" />
            <mxPoint x="-890" y="320" as="targetPoint" />
          </mxGeometry>
        </mxCell>
        <mxCell id="bctqPc9YO9gmIVUVWEl7-34" value="m" style="text;strokeColor=none;fillColor=none;spacingLeft=4;spacingRight=4;overflow=hidden;rotatable=0;points=[[0,0.5],[1,0.5]];portConstraint=eastwest;fontSize=12;whiteSpace=wrap;html=1;" parent="1" vertex="1">
          <mxGeometry x="-899.25" y="330" width="18.5" height="20" as="geometry" />
        </mxCell>
        <mxCell id="EBivG8tYSWmVu9yX3p4W-1" value="Fecha de registro" style="ellipse;whiteSpace=wrap;html=1;align=center;" vertex="1" parent="1">
          <mxGeometry x="-909.5" y="659" width="100" height="40" as="geometry" />
        </mxCell>
        <mxCell id="EBivG8tYSWmVu9yX3p4W-2" value="" style="endArrow=none;html=1;rounded=0;exitX=0.5;exitY=0;exitDx=0;exitDy=0;entryX=0;entryY=0.75;entryDx=0;entryDy=0;" edge="1" parent="1" source="EBivG8tYSWmVu9yX3p4W-1" target="h0BoNwNPt8mU9W3nCbxn-16">
          <mxGeometry width="50" height="50" relative="1" as="geometry">
            <mxPoint x="-670" y="580" as="sourcePoint" />
            <mxPoint x="-620" y="530" as="targetPoint" />
          </mxGeometry>
        </mxCell>
        <mxCell id="EBivG8tYSWmVu9yX3p4W-3" value="Fecha de aplicación" style="ellipse;whiteSpace=wrap;html=1;align=center;" vertex="1" parent="1">
          <mxGeometry x="-754" y="565" width="79" height="25" as="geometry" />
        </mxCell>
        <mxCell id="EBivG8tYSWmVu9yX3p4W-4" value="" style="endArrow=none;html=1;rounded=0;exitX=0.5;exitY=0;exitDx=0;exitDy=0;entryX=0;entryY=1;entryDx=0;entryDy=0;" edge="1" parent="1" source="EBivG8tYSWmVu9yX3p4W-3" target="h0BoNwNPt8mU9W3nCbxn-50">
          <mxGeometry width="50" height="50" relative="1" as="geometry">
            <mxPoint x="-670" y="580" as="sourcePoint" />
            <mxPoint x="-620" y="530" as="targetPoint" />
          </mxGeometry>
        </mxCell>
        <mxCell id="EBivG8tYSWmVu9yX3p4W-5" value="Fecha de publicación" style="ellipse;whiteSpace=wrap;html=1;align=center;" vertex="1" parent="1">
          <mxGeometry x="-556.5" y="580" width="76.5" height="25" as="geometry" />
        </mxCell>
        <mxCell id="EBivG8tYSWmVu9yX3p4W-6" value="" style="endArrow=none;html=1;rounded=0;exitX=0.5;exitY=0;exitDx=0;exitDy=0;entryX=0;entryY=0.5;entryDx=0;entryDy=0;" edge="1" parent="1" source="EBivG8tYSWmVu9yX3p4W-5" target="h0BoNwNPt8mU9W3nCbxn-48">
          <mxGeometry width="50" height="50" relative="1" as="geometry">
            <mxPoint x="-590" y="570" as="sourcePoint" />
            <mxPoint x="-540" y="520" as="targetPoint" />
          </mxGeometry>
        </mxCell>
        <mxCell id="EBivG8tYSWmVu9yX3p4W-7" value="Fecha de ingreso" style="ellipse;whiteSpace=wrap;html=1;align=center;" vertex="1" parent="1">
          <mxGeometry x="-864.5" y="420" width="64.5" height="24" as="geometry" />
        </mxCell>
        <mxCell id="EBivG8tYSWmVu9yX3p4W-8" value="" style="endArrow=none;html=1;rounded=0;exitX=1;exitY=1;exitDx=0;exitDy=0;entryX=0;entryY=0.5;entryDx=0;entryDy=0;" edge="1" parent="1" source="EBivG8tYSWmVu9yX3p4W-7" target="h0BoNwNPt8mU9W3nCbxn-49">
          <mxGeometry width="50" height="50" relative="1" as="geometry">
            <mxPoint x="-590" y="570" as="sourcePoint" />
            <mxPoint x="-540" y="520" as="targetPoint" />
          </mxGeometry>
        </mxCell>
      </root>
    </mxGraphModel>
  </diagram>
</mxfile>
